<svg xmlns="http://www.w3.org/2000/svg" xmlns:svg="http://www.w3.org/2000/svg" xmlns:xlink="http://www.w3.org/1999/xlink" id="svg3851" width="16" height="16" version="1.1"><defs id="defs3853"><linearGradient id="linearGradient3837"><stop style="stop-color:gray;stop-opacity:1" id="stop3839" offset="0"/><stop style="stop-color:#e9e9e9;stop-opacity:1" id="stop3841" offset="1"/></linearGradient><linearGradient id="linearGradient3841"><stop id="stop3843" offset="0" style="stop-color:#fff;stop-opacity:1"/><stop style="stop-color:#fff;stop-opacity:1" id="stop3845" offset=".35"/><stop id="stop3849" offset=".545" style="stop-color:#e8e8e8;stop-opacity:1"/><stop id="stop3847" offset="1" style="stop-color:#252525;stop-opacity:1"/></linearGradient><linearGradient id="linearGradient3824"><stop style="stop-color:#fff;stop-opacity:1" id="stop3826" offset="0"/><stop id="stop3832" offset=".5" style="stop-color:#fff;stop-opacity:1"/><stop style="stop-color:#d2d2d2;stop-opacity:1" id="stop3828" offset="1"/></linearGradient><linearGradient id="linearGradient3827"><stop style="stop-color:#8ca6f1;stop-opacity:1" id="stop3829" offset="0"/><stop id="stop3836" offset=".74" style="stop-color:#5a72b4;stop-opacity:1"/><stop style="stop-color:#293e78;stop-opacity:1" id="stop3831" offset="1"/></linearGradient><linearGradient id="linearGradient5756"><stop style="stop-color:#c8c8c8;stop-opacity:1" id="stop5758" offset="0"/><stop style="stop-color:#fff;stop-opacity:1" id="stop5760" offset="1"/></linearGradient><marker id="Arrow2Lend" orient="auto" refX="0" refY="0" style="overflow:visible"><path id="path4397" style="font-size:12;fill-rule:evenodd;stroke-width:.625;stroke-linejoin:round" d="M 8.7185878,4.0337352 L -2.2072895,0.016013256 L 8.7185884,-4.0017078 C 6.9730900,-1.6296469 6.9831476,1.6157441 8.7185878,4.0337352 z" transform="scale(1.1) rotate(180) translate(1,0)"/></marker><marker id="Arrow2Lstart" orient="auto" refX="0" refY="0" style="overflow:visible"><path id="path4394" style="font-size:12;fill-rule:evenodd;stroke-width:.625;stroke-linejoin:round" d="M 8.7185878,4.0337352 L -2.2072895,0.016013256 L 8.7185884,-4.0017078 C 6.9730900,-1.6296469 6.9831476,1.6157441 8.7185878,4.0337352 z" transform="scale(1.1) translate(1,0)"/></marker><marker id="Arrow1Lstart" orient="auto" refX="0" refY="0" style="overflow:visible"><path id="path4376" d="M 0.0,0.0 L 5.0,-5.0 L -12.5,0.0 L 5.0,5.0 L 0.0,0.0 z" style="fill-rule:evenodd;stroke:#000;stroke-width:1pt;marker-start:none" transform="scale(0.8) translate(12.5,0)"/></marker><linearGradient id="linearGradient5762" x1="12" x2="7.5" y1="11.5" y2="6" gradientTransform="matrix(-1.030301,0,0,1.030301,16.242408,-0.242408)" gradientUnits="userSpaceOnUse" xlink:href="#linearGradient5756"/><linearGradient id="linearGradient3798" x1="4" x2="9" y1="14" y2="8.5" gradientUnits="userSpaceOnUse" xlink:href="#linearGradient5756"/><linearGradient id="linearGradient4546" x1="17" x2="17" y1="1043.472" y2="1040.536" gradientTransform="matrix(0.5297937,0,0,0.42583335,-0.44892098,605.26716)" gradientUnits="userSpaceOnUse" xlink:href="#linearGradient4548"/><linearGradient id="linearGradient4548"><stop style="stop-color:#000;stop-opacity:1" id="stop4550" offset="0"/><stop id="stop4552" offset=".5" style="stop-color:#fff;stop-opacity:1"/><stop style="stop-color:#000;stop-opacity:1" id="stop4554" offset="1"/></linearGradient></defs><metadata id="metadata3856"/><g id="layer1"><g style="font-size:21.55789566px;font-style:normal;font-variant:normal;font-weight:700;font-stretch:normal;text-align:start;line-height:125%;letter-spacing:0;word-spacing:0;writing-mode:lr-tb;text-anchor:start;fill:#3f3f3f;fill-opacity:1;stroke:none;font-family:Sans;-inkscape-font-specification:Sans Bold" id="text3853"><path id="path3877" d="m 9.9631582,10.694737 -3.8000001,0 0,-0.51579 C 6.1631544,9.6035149 6.2789438,9.0947435 6.5105265,8.6526313 6.7421012,8.2035162 7.22982,7.6350957 7.9736844,6.947368 L 8.6473687,6.3368417 C 9.0473622,5.9719394 9.3385899,5.6280801 9.5210529,5.3052627 9.7105194,4.9824667 9.8052562,4.65966 9.8052635,4.3368416 9.8052562,3.8456257 9.6368353,3.4631699 9.3000003,3.1894731 8.9631517,2.9087845 8.4929767,2.7684337 7.8894739,2.7684205 7.321048,2.7684337 6.7070135,2.8877318 6.0473686,3.1263152 5.3877165,3.3579068 4.6999979,3.7052749 3.9842106,4.1684205 l 0,-3.30526325 C 4.8333311,0.56843582 5.608769,0.35089217 6.3105265,0.21052564 7.0122764,0.07019069 7.6894687,1.5314547e-5 8.3421055,-6.8545341e-7 10.054379,1.5314547e-5 11.359641,0.35089217 12.257895,1.0526309 c 0.898235,0.6947512 1.347358,1.712294 1.347369,3.0526317 -1.1e-5,0.6877306 -0.136853,1.3052739 -0.410527,1.8526317 -0.273694,0.5403604 -0.740361,1.122816 -1.4,1.7473685 l -0.673684,0.6 C 10.643852,8.7403578 10.331571,9.0912347 10.184211,9.3578945 10.036835,9.61755 9.9631508,9.905269 9.9631582,10.221052 l 0,0.473685 m -3.8000001,1.557894 3.8000001,0 0,3.747369 -3.8000001,0 0,-3.747369"/></g></g></svg>