<svg xmlns="http://www.w3.org/2000/svg" xmlns:svg="http://www.w3.org/2000/svg" xmlns:xlink="http://www.w3.org/1999/xlink" id="svg3851" width="16" height="16" version="1.1"><defs id="defs3853"><linearGradient id="linearGradient3841"><stop id="stop3843" offset="0" style="stop-color:#fff;stop-opacity:1"/><stop style="stop-color:#fff;stop-opacity:1" id="stop3845" offset=".35"/><stop id="stop3849" offset=".545" style="stop-color:#e8e8e8;stop-opacity:1"/><stop id="stop3847" offset="1" style="stop-color:#252525;stop-opacity:1"/></linearGradient><linearGradient id="linearGradient3824"><stop style="stop-color:#fff;stop-opacity:1" id="stop3826" offset="0"/><stop id="stop3832" offset=".5" style="stop-color:#fff;stop-opacity:1"/><stop style="stop-color:#d2d2d2;stop-opacity:1" id="stop3828" offset="1"/></linearGradient><linearGradient id="linearGradient3827"><stop style="stop-color:#8ca6f1;stop-opacity:1" id="stop3829" offset="0"/><stop id="stop3836" offset=".74" style="stop-color:#5a72b4;stop-opacity:1"/><stop style="stop-color:#293e78;stop-opacity:1" id="stop3831" offset="1"/></linearGradient><linearGradient id="linearGradient5756"><stop style="stop-color:#c8c8c8;stop-opacity:1" id="stop5758" offset="0"/><stop style="stop-color:#fff;stop-opacity:1" id="stop5760" offset="1"/></linearGradient><marker id="Arrow2Lend" orient="auto" refX="0" refY="0" style="overflow:visible"><path id="path4397" style="font-size:12;fill-rule:evenodd;stroke-width:.625;stroke-linejoin:round" d="M 8.7185878,4.0337352 L -2.2072895,0.016013256 L 8.7185884,-4.0017078 C 6.9730900,-1.6296469 6.9831476,1.6157441 8.7185878,4.0337352 z" transform="scale(1.1) rotate(180) translate(1,0)"/></marker><marker id="Arrow2Lstart" orient="auto" refX="0" refY="0" style="overflow:visible"><path id="path4394" style="font-size:12;fill-rule:evenodd;stroke-width:.625;stroke-linejoin:round" d="M 8.7185878,4.0337352 L -2.2072895,0.016013256 L 8.7185884,-4.0017078 C 6.9730900,-1.6296469 6.9831476,1.6157441 8.7185878,4.0337352 z" transform="scale(1.1) translate(1,0)"/></marker><marker id="Arrow1Lstart" orient="auto" refX="0" refY="0" style="overflow:visible"><path id="path4376" d="M 0.0,0.0 L 5.0,-5.0 L -12.5,0.0 L 5.0,5.0 L 0.0,0.0 z" style="fill-rule:evenodd;stroke:#000;stroke-width:1pt;marker-start:none" transform="scale(0.8) translate(12.5,0)"/></marker><linearGradient id="linearGradient5762" x1="12" x2="7.5" y1="11.5" y2="6" gradientTransform="matrix(-1.030301,0,0,1.030301,16.242408,-0.242408)" gradientUnits="userSpaceOnUse" xlink:href="#linearGradient5756"/><linearGradient id="linearGradient3798" x1="4" x2="9" y1="14" y2="8.5" gradientUnits="userSpaceOnUse" xlink:href="#linearGradient5756"/><radialGradient id="radialGradient3833" cx="7.875" cy="6.875" r="3.13" fx="7.875" fy="6.875" gradientUnits="userSpaceOnUse" xlink:href="#linearGradient3827"/><radialGradient id="radialGradient3830" cx="7.234" cy="7.284" r="7.875" fx="7.234" fy="7.284" gradientTransform="matrix(1.3655998,8.9804355e-8,-5.0557595e-8,0.69841272,-2.1415873,2.4126975)" gradientUnits="userSpaceOnUse" xlink:href="#linearGradient3841"/></defs><metadata id="metadata3856"/><g id="layer1"><path style="fill:url(#radialGradient3830);fill-opacity:1;stroke:none" id="path3016" d="M 8.000001,3.375 C 4.5197982,3.375 1.5568015,5.2795083 2e-7,7.9999998 1.5568015,10.720492 4.5197982,12.625 8.000001,12.625 11.480204,12.625 14.443199,10.720492 16,7.9999998 14.443199,5.2795083 11.480204,3.375 8.000001,3.375 z"/><path style="fill:url(#radialGradient3833);fill-opacity:1;stroke:none" id="path3035" d="m 10.75,6.875 a 2.875,2.875 0 1 1 -5.75,0 2.875,2.875 0 1 1 5.75,0 z" transform="matrix(1.2173917,0,0,1.1603265,-1.5869609,0.02275476)"/><path style="fill:#000;fill-opacity:1;stroke:none" id="path3825" d="m -2.5,3.25 a 1,1 0 1 1 -2,0 1,1 0 1 1 2,0 z" transform="matrix(1.4553943,0,0,1.3871725,13.093881,3.491689)"/><path style="fill:#fff;fill-opacity:.47031962;stroke:none" id="path3838" d="M 8.8721268,5.915038 C 9.367225,6.732376 8.1297747,6.2196902 7.27224,6.6915806 6.4147046,7.1634713 6.2618149,8.4412427 5.7667161,7.6239043 5.2716181,6.8065664 5.5654319,5.7614398 6.4229664,5.2895494 7.2805019,4.817659 8.3770287,5.0976999 8.8721268,5.915038 z"/></g></svg>