<svg xmlns="http://www.w3.org/2000/svg" xmlns:svg="http://www.w3.org/2000/svg" xmlns:xlink="http://www.w3.org/1999/xlink" id="svg3851" width="16" height="16" version="1.1"><defs id="defs3853"><linearGradient id="linearGradient5756"><stop style="stop-color:#c8c8c8;stop-opacity:1" id="stop5758" offset="0"/><stop style="stop-color:#fff;stop-opacity:1" id="stop5760" offset="1"/></linearGradient><marker id="Arrow2Lend" orient="auto" refX="0" refY="0" style="overflow:visible"><path id="path4397" style="font-size:12;fill-rule:evenodd;stroke-width:.625;stroke-linejoin:round" d="M 8.7185878,4.0337352 L -2.2072895,0.016013256 L 8.7185884,-4.0017078 C 6.9730900,-1.6296469 6.9831476,1.6157441 8.7185878,4.0337352 z" transform="scale(1.1) rotate(180) translate(1,0)"/></marker><marker id="Arrow2Lstart" orient="auto" refX="0" refY="0" style="overflow:visible"><path id="path4394" style="font-size:12;fill-rule:evenodd;stroke-width:.625;stroke-linejoin:round" d="M 8.7185878,4.0337352 L -2.2072895,0.016013256 L 8.7185884,-4.0017078 C 6.9730900,-1.6296469 6.9831476,1.6157441 8.7185878,4.0337352 z" transform="scale(1.1) translate(1,0)"/></marker><marker id="Arrow1Lstart" orient="auto" refX="0" refY="0" style="overflow:visible"><path id="path4376" d="M 0.0,0.0 L 5.0,-5.0 L -12.5,0.0 L 5.0,5.0 L 0.0,0.0 z" style="fill-rule:evenodd;stroke:#000;stroke-width:1pt;marker-start:none" transform="scale(0.8) translate(12.5,0)"/></marker><linearGradient id="linearGradient5762" x1="12" x2="7.5" y1="11.5" y2="6" gradientTransform="matrix(-1.030301,0,0,1.030301,16.242408,-0.242408)" gradientUnits="userSpaceOnUse" xlink:href="#linearGradient5756"/><linearGradient id="linearGradient3798" x1="4" x2="9" y1="14" y2="8.5" gradientUnits="userSpaceOnUse" xlink:href="#linearGradient5756"/></defs><metadata id="metadata3856"/><g id="layer1"><path style="font-size:medium;font-style:normal;font-variant:normal;font-weight:400;font-stretch:normal;text-indent:0;text-align:start;text-decoration:none;line-height:normal;letter-spacing:normal;word-spacing:normal;text-transform:none;direction:ltr;block-progression:tb;writing-mode:lr-tb;text-anchor:start;baseline-shift:baseline;color:#000;fill:#fff;fill-opacity:1;fill-rule:nonzero;stroke:#000;stroke-width:.5;stroke-linecap:square;stroke-linejoin:miter;stroke-miterlimit:4;stroke-opacity:1;stroke-dasharray:none;marker:none;visibility:visible;display:inline;overflow:visible;enable-background:accumulate;font-family:Sans;-inkscape-font-specification:Sans" id="path3013" d="m 2.5134603,2.5134605 c -3.01794707,3.0179472 -3.01794707,7.9551325 0,10.9730785 3.0179471,3.017948 7.9551327,3.017948 10.9730797,0 3.017947,-3.017947 3.017947,-7.9551313 0,-10.9730785 -3.017947,-3.01794703 -7.9551326,-3.01794703 -10.9730797,0 z M 4.228004,4.9138216 C 4.332239,4.7862402 4.4517865,4.690039 4.5709127,4.5709129 6.1149792,3.0268463 8.3971062,2.7560089 10.228906,3.7136411 L 3.7136408,10.228906 C 2.8298908,8.5384315 2.9811814,6.4398989 4.228004,4.9138216 z M 5.7710931,12.28636 12.286359,5.7710934 c 0.957632,1.8318004 0.686795,4.1139278 -0.857272,5.6579936 -1.5440662,1.544066 -3.8261935,1.814904 -5.6579939,0.857272 z"/></g></svg>