<svg xmlns="http://www.w3.org/2000/svg" xmlns:svg="http://www.w3.org/2000/svg" xmlns:xlink="http://www.w3.org/1999/xlink" id="svg3851" width="16" height="16" version="1.1"><defs id="defs3853"><linearGradient id="linearGradient5756"><stop style="stop-color:#c8c8c8;stop-opacity:1" id="stop5758" offset="0"/><stop style="stop-color:#fff;stop-opacity:1" id="stop5760" offset="1"/></linearGradient><marker id="Arrow2Lend" orient="auto" refX="0" refY="0" style="overflow:visible"><path id="path4397" style="font-size:12;fill-rule:evenodd;stroke-width:.625;stroke-linejoin:round" d="M 8.7185878,4.0337352 L -2.2072895,0.016013256 L 8.7185884,-4.0017078 C 6.9730900,-1.6296469 6.9831476,1.6157441 8.7185878,4.0337352 z" transform="scale(1.1) rotate(180) translate(1,0)"/></marker><marker id="Arrow2Lstart" orient="auto" refX="0" refY="0" style="overflow:visible"><path id="path4394" style="font-size:12;fill-rule:evenodd;stroke-width:.625;stroke-linejoin:round" d="M 8.7185878,4.0337352 L -2.2072895,0.016013256 L 8.7185884,-4.0017078 C 6.9730900,-1.6296469 6.9831476,1.6157441 8.7185878,4.0337352 z" transform="scale(1.1) translate(1,0)"/></marker><marker id="Arrow1Lstart" orient="auto" refX="0" refY="0" style="overflow:visible"><path id="path4376" d="M 0.0,0.0 L 5.0,-5.0 L -12.5,0.0 L 5.0,5.0 L 0.0,0.0 z" style="fill-rule:evenodd;stroke:#000;stroke-width:1pt;marker-start:none" transform="scale(0.8) translate(12.5,0)"/></marker><linearGradient id="linearGradient5762" x1="12" x2="7.5" y1="11.5" y2="6" gradientTransform="matrix(-1.030301,0,0,1.030301,16.242408,-0.242408)" gradientUnits="userSpaceOnUse" xlink:href="#linearGradient5756"/><linearGradient id="linearGradient3798" x1="4" x2="9" y1="14" y2="8.5" gradientUnits="userSpaceOnUse" xlink:href="#linearGradient5756"/></defs><metadata id="metadata3856"/><g id="layer1"><rect style="fill:#d5d5d5;fill-opacity:1;stroke:#898989;stroke-width:.99999994000000003;stroke-opacity:1" id="rect4701" width="15" height="11" x=".5" y="2.5"/><rect id="rect5489" width="5" height="11" x=".5" y="2.5" style="fill:#fdff88;fill-opacity:1;stroke:#898989;stroke-width:.99999987999999995;stroke-opacity:1"/></g></svg>