<svg xmlns="http://www.w3.org/2000/svg" xmlns:svg="http://www.w3.org/2000/svg" xmlns:xlink="http://www.w3.org/1999/xlink" id="svg3851" width="16" height="16" version="1.1"><defs id="defs3853"><linearGradient id="linearGradient5756"><stop style="stop-color:#c8c8c8;stop-opacity:1" id="stop5758" offset="0"/><stop style="stop-color:#fff;stop-opacity:1" id="stop5760" offset="1"/></linearGradient><marker id="Arrow2Lend" orient="auto" refX="0" refY="0" style="overflow:visible"><path id="path4397" style="font-size:12;fill-rule:evenodd;stroke-width:.625;stroke-linejoin:round" d="M 8.7185878,4.0337352 L -2.2072895,0.016013256 L 8.7185884,-4.0017078 C 6.9730900,-1.6296469 6.9831476,1.6157441 8.7185878,4.0337352 z" transform="scale(1.1) rotate(180) translate(1,0)"/></marker><marker id="Arrow2Lstart" orient="auto" refX="0" refY="0" style="overflow:visible"><path id="path4394" style="font-size:12;fill-rule:evenodd;stroke-width:.625;stroke-linejoin:round" d="M 8.7185878,4.0337352 L -2.2072895,0.016013256 L 8.7185884,-4.0017078 C 6.9730900,-1.6296469 6.9831476,1.6157441 8.7185878,4.0337352 z" transform="scale(1.1) translate(1,0)"/></marker><marker id="Arrow1Lstart" orient="auto" refX="0" refY="0" style="overflow:visible"><path id="path4376" d="M 0.0,0.0 L 5.0,-5.0 L -12.5,0.0 L 5.0,5.0 L 0.0,0.0 z" style="fill-rule:evenodd;stroke:#000;stroke-width:1pt;marker-start:none" transform="scale(0.8) translate(12.5,0)"/></marker><linearGradient id="linearGradient5762" x1="12" x2="7.5" y1="11.5" y2="6" gradientTransform="matrix(-1.030301,0,0,1.030301,16.242408,-0.242408)" gradientUnits="userSpaceOnUse" xlink:href="#linearGradient5756"/></defs><metadata id="metadata3856"/><g id="layer1"><path style="fill:#fff;fill-opacity:1;stroke:#000;stroke-width:.51600000000000001;stroke-linecap:butt;stroke-linejoin:round;stroke-miterlimit:4;stroke-opacity:1;stroke-dasharray:none" id="rect5573-9" d="M 7.9830855,0.42477069 C 7.1007338,1.780125 5.830137,2.8569408 4.1712949,3.6552183 5.0203915,4.0292398 5.8693813,4.278683 6.7182643,4.4035481 6.3263223,6.2629367 5.8440956,8.1146238 5.2715842,9.9586094 4.0369907,9.9436748 2.769462,9.8041928 1.4689982,9.5401635 3.0602295,12.037867 5.2301782,14.155139 7.9788442,15.891979 10.740259,14.157028 12.919818,12.039467 14.51752,9.5392956 13.217652,9.803598 11.950506,9.9432915 10.716081,9.958376 10.14198,8.1149244 9.6581514,6.263602 9.2645936,4.4044088 10.113262,4.2801177 10.961823,4.0312488 11.810278,3.6578022 10.144839,2.8621931 8.8691087,1.784516 7.9830855,0.42477069 z"/></g></svg>