<svg xmlns="http://www.w3.org/2000/svg" xmlns:svg="http://www.w3.org/2000/svg" xmlns:xlink="http://www.w3.org/1999/xlink" id="svg3851" width="16" height="16" version="1.1"><defs id="defs3853"><linearGradient id="linearGradient5756"><stop style="stop-color:#c8c8c8;stop-opacity:1" id="stop5758" offset="0"/><stop style="stop-color:#fff;stop-opacity:1" id="stop5760" offset="1"/></linearGradient><marker id="Arrow2Lend" orient="auto" refX="0" refY="0" style="overflow:visible"><path id="path4397" style="font-size:12;fill-rule:evenodd;stroke-width:.625;stroke-linejoin:round" d="M 8.7185878,4.0337352 L -2.2072895,0.016013256 L 8.7185884,-4.0017078 C 6.9730900,-1.6296469 6.9831476,1.6157441 8.7185878,4.0337352 z" transform="scale(1.1) rotate(180) translate(1,0)"/></marker><marker id="Arrow2Lstart" orient="auto" refX="0" refY="0" style="overflow:visible"><path id="path4394" style="font-size:12;fill-rule:evenodd;stroke-width:.625;stroke-linejoin:round" d="M 8.7185878,4.0337352 L -2.2072895,0.016013256 L 8.7185884,-4.0017078 C 6.9730900,-1.6296469 6.9831476,1.6157441 8.7185878,4.0337352 z" transform="scale(1.1) translate(1,0)"/></marker><marker id="Arrow1Lstart" orient="auto" refX="0" refY="0" style="overflow:visible"><path id="path4376" d="M 0.0,0.0 L 5.0,-5.0 L -12.5,0.0 L 5.0,5.0 L 0.0,0.0 z" style="fill-rule:evenodd;stroke:#000;stroke-width:1pt;marker-start:none" transform="scale(0.8) translate(12.5,0)"/></marker><linearGradient id="linearGradient5762" x1="12" x2="7.5" y1="11.5" y2="6" gradientTransform="matrix(-1.030301,0,0,1.030301,16.242408,-0.242408)" gradientUnits="userSpaceOnUse" xlink:href="#linearGradient5756"/><linearGradient id="linearGradient3798" x1="4" x2="9" y1="14" y2="8.5" gradientUnits="userSpaceOnUse" xlink:href="#linearGradient5756"/></defs><metadata id="metadata3856"/><g id="layer1"><path style="fill:none;fill-opacity:1;stroke:#000;stroke-width:2.5;stroke-linecap:butt;stroke-linejoin:round;stroke-miterlimit:4;stroke-opacity:1;stroke-dasharray:none" id="path3010" d="m 11.5,8 a 3.5,3.5 0 1 1 -7,0 3.5,3.5 0 1 1 7,0 z"/><path id="path3801" d="m 11.5,8 a 3.5,3.5 0 1 1 -7,0 3.5,3.5 0 1 1 7,0 z" style="fill:none;stroke:#fff;stroke-width:1.5;stroke-linecap:butt;stroke-linejoin:round;stroke-miterlimit:4;stroke-opacity:1;stroke-dasharray:none"/><path style="fill:#fff;fill-opacity:1;stroke:#000;stroke-width:.41617912;stroke-linecap:butt;stroke-linejoin:round;stroke-miterlimit:4;stroke-opacity:1;stroke-dasharray:none" id="path3809" d="M 2,8 0.49999996,8.8660254 -1,9.7320508 -1,8 -1,6.2679492 0.50000004,7.1339746 z" transform="matrix(-1.0833333,0,0,1.7320509,2.4166667,-5.8564069)"/><path style="fill:#fff;fill-opacity:1;stroke:#000;stroke-width:.41617912;stroke-linecap:butt;stroke-linejoin:round;stroke-miterlimit:4;stroke-opacity:1;stroke-dasharray:none" id="path3809-4" d="M 2,8 0.49999996,8.8660254 -1,9.7320508 -1,8 -1,6.2679492 0.50000004,7.1339746 z" transform="matrix(1.0833333,0,0,-1.7320509,13.583333,21.856407)"/><path id="path3829" d="M 2,8 0.49999996,8.8660254 -1,9.7320508 -1,8 -1,6.2679492 0.50000004,7.1339746 z" transform="matrix(0,1.0833333,1.7320509,0,-5.8564063,13.583333)" style="fill:#fff;fill-opacity:1;stroke:#000;stroke-width:.41617912;stroke-linecap:butt;stroke-linejoin:round;stroke-miterlimit:4;stroke-opacity:1;stroke-dasharray:none"/><path id="path3831" d="M 2,8 0.49999996,8.8660254 -1,9.7320508 -1,8 -1,6.2679492 0.50000004,7.1339746 z" transform="matrix(0,-1.0833333,-1.7320509,0,21.856407,2.4166667)" style="fill:#fff;fill-opacity:1;stroke:#000;stroke-width:.41617912;stroke-linecap:butt;stroke-linejoin:round;stroke-miterlimit:4;stroke-opacity:1;stroke-dasharray:none"/></g></svg>