<svg xmlns="http://www.w3.org/2000/svg" xmlns:svg="http://www.w3.org/2000/svg" xmlns:xlink="http://www.w3.org/1999/xlink" id="svg3851" width="16" height="16" version="1.1"><defs id="defs3853"><linearGradient id="linearGradient5756"><stop style="stop-color:#c8c8c8;stop-opacity:1" id="stop5758" offset="0"/><stop style="stop-color:#fff;stop-opacity:1" id="stop5760" offset="1"/></linearGradient><marker id="Arrow2Lend" orient="auto" refX="0" refY="0" style="overflow:visible"><path id="path4397" style="font-size:12;fill-rule:evenodd;stroke-width:.625;stroke-linejoin:round" d="M 8.7185878,4.0337352 L -2.2072895,0.016013256 L 8.7185884,-4.0017078 C 6.9730900,-1.6296469 6.9831476,1.6157441 8.7185878,4.0337352 z" transform="scale(1.1) rotate(180) translate(1,0)"/></marker><marker id="Arrow2Lstart" orient="auto" refX="0" refY="0" style="overflow:visible"><path id="path4394" style="font-size:12;fill-rule:evenodd;stroke-width:.625;stroke-linejoin:round" d="M 8.7185878,4.0337352 L -2.2072895,0.016013256 L 8.7185884,-4.0017078 C 6.9730900,-1.6296469 6.9831476,1.6157441 8.7185878,4.0337352 z" transform="scale(1.1) translate(1,0)"/></marker><marker id="Arrow1Lstart" orient="auto" refX="0" refY="0" style="overflow:visible"><path id="path4376" d="M 0.0,0.0 L 5.0,-5.0 L -12.5,0.0 L 5.0,5.0 L 0.0,0.0 z" style="fill-rule:evenodd;stroke:#000;stroke-width:1pt;marker-start:none" transform="scale(0.8) translate(12.5,0)"/></marker><linearGradient id="linearGradient5762" x1="12" x2="7.5" y1="11.5" y2="6" gradientTransform="matrix(-1.030301,0,0,1.030301,16.242408,-0.242408)" gradientUnits="userSpaceOnUse" xlink:href="#linearGradient5756"/><linearGradient id="linearGradient3798" x1="4" x2="9" y1="14" y2="8.5" gradientUnits="userSpaceOnUse" xlink:href="#linearGradient5756"/></defs><metadata id="metadata3856"/><g id="layer1"><path style="font-size:medium;font-style:normal;font-variant:normal;font-weight:400;font-stretch:normal;text-indent:0;text-align:start;text-decoration:none;line-height:normal;letter-spacing:normal;word-spacing:normal;text-transform:none;direction:ltr;block-progression:tb;writing-mode:lr-tb;text-anchor:start;baseline-shift:baseline;color:#000;fill:#fff;fill-opacity:1;fill-rule:nonzero;stroke:#000;stroke-width:.5;stroke-miterlimit:4;stroke-opacity:1;stroke-dasharray:none;marker:none;visibility:visible;display:inline;overflow:visible;enable-background:accumulate;font-family:Sans;-inkscape-font-specification:Sans;stroke-linejoin:miter" id="path3871-4" d="m 6.5,0.25 0,1.6875 C 3.7854756,2.6171651 1.75,5.0828015 1.75,8 c 0,2.735433 1.7898788,5.064871 4.25,5.90625 L 4.71875,12.25 l 1.5,-0.96875 C 5.0530559,10.648511 4.25,9.4312859 4.25,8 4.25,6.4492747 5.1701064,5.1368569 6.5,4.5625 l 0,1.6875 2,-1.5 2,-1.5 -2,-1.5 -2,-1.5 z M 10,2.09375 11.28125,3.75 l -1.5,0.96875 C 10.946944,5.3514892 11.75,6.5687141 11.75,8 c 0,1.5507253 -0.920106,2.863143 -2.25,3.4375 l 0,-1.6875 -2,1.5 -2,1.5 2,1.5 2,1.5 0,-1.6875 C 12.214524,13.382835 14.25,10.917198 14.25,8 14.25,5.2645669 12.460121,2.9351287 10,2.09375 z"/><path style="font-size:medium;font-style:normal;font-variant:normal;font-weight:400;font-stretch:normal;text-indent:0;text-align:start;text-decoration:none;line-height:normal;letter-spacing:normal;word-spacing:normal;text-transform:none;direction:ltr;block-progression:tb;writing-mode:lr-tb;text-anchor:start;baseline-shift:baseline;color:#000;fill:#fff;fill-opacity:1;fill-rule:nonzero;stroke:#000;stroke-width:.5;stroke-miterlimit:4;stroke-opacity:1;stroke-dasharray:none;marker:none;visibility:visible;display:inline;overflow:visible;enable-background:accumulate;font-family:Sans;-inkscape-font-specification:Sans" id="path3871-4-2" d="M -8.75,1 C -12.186974,1 -15,3.813026 -15,7.25 c 0,3.436974 2.813026,6.249999 6.25,6.249999 3.436974,0 6.25,-2.813025 6.25,-6.249999 C -2.5,3.813026 -5.313026,1 -8.75,1 z m 0,2.5 C -6.664126,3.5 -5,5.164126 -5,7.25 -5,9.3358736 -6.664126,11 -8.75,11 c -2.085874,0 -3.75,-1.6641264 -3.75,-3.75 0,-2.085874 1.664126,-3.75 3.75,-3.75 z"/><path style="fill:#fff;fill-opacity:1;stroke:#000;stroke-width:.36501324;stroke-linecap:butt;stroke-linejoin:round;stroke-miterlimit:4;stroke-opacity:1;stroke-dasharray:none" id="path3809-5-6" d="M 2,8 0.49999996,8.8660254 -1,9.7320508 -1,8 -1,6.2679492 0.50000004,7.1339746 z" transform="matrix(-1.0833333,0,0,1.7320509,-9.083333,-1.8564071)"/><path id="path3885-2-6" d="M 2,8 0.49999996,8.8660254 -1,9.7320508 -1,8 -1,6.2679492 0.50000004,7.1339746 z" transform="matrix(1.0833333,0,0,-1.7320508,-8.416667,16.356405)" style="fill:#fff;fill-opacity:1;stroke:#000;stroke-width:.36501324;stroke-linecap:butt;stroke-linejoin:round;stroke-miterlimit:4;stroke-opacity:1;stroke-dasharray:none"/><path id="path3013-0" d="M 2,8 0.49999996,8.8660254 -1,9.7320508 -1,8 -1,6.2679492 0.50000004,7.1339746 z" transform="matrix(-1.0833333,0,0,1.7320509,-9.083333,-1.8564071)" style="fill:#fff;fill-opacity:1;stroke:#000;stroke-width:.36501324;stroke-linecap:butt;stroke-linejoin:round;stroke-miterlimit:4;stroke-opacity:1;stroke-dasharray:none"/><path style="fill:#fff;fill-opacity:1;stroke:#000;stroke-width:.36501324;stroke-linecap:butt;stroke-linejoin:round;stroke-miterlimit:4;stroke-opacity:1;stroke-dasharray:none" id="path3015-9" d="M 2,8 0.49999996,8.8660254 -1,9.7320508 -1,8 -1,6.2679492 0.50000004,7.1339746 z" transform="matrix(1.0833333,0,0,-1.7320508,-8.416667,16.356405)"/></g></svg>