<svg xmlns="http://www.w3.org/2000/svg" xmlns:svg="http://www.w3.org/2000/svg" xmlns:xlink="http://www.w3.org/1999/xlink" id="svg3851" width="16" height="16" version="1.1"><defs id="defs3853"><linearGradient id="linearGradient5756"><stop style="stop-color:#c8c8c8;stop-opacity:1" id="stop5758" offset="0"/><stop style="stop-color:#fff;stop-opacity:1" id="stop5760" offset="1"/></linearGradient><marker id="Arrow2Lend" orient="auto" refX="0" refY="0" style="overflow:visible"><path id="path4397" style="font-size:12;fill-rule:evenodd;stroke-width:.625;stroke-linejoin:round" d="M 8.7185878,4.0337352 L -2.2072895,0.016013256 L 8.7185884,-4.0017078 C 6.9730900,-1.6296469 6.9831476,1.6157441 8.7185878,4.0337352 z" transform="scale(1.1) rotate(180) translate(1,0)"/></marker><marker id="Arrow2Lstart" orient="auto" refX="0" refY="0" style="overflow:visible"><path id="path4394" style="font-size:12;fill-rule:evenodd;stroke-width:.625;stroke-linejoin:round" d="M 8.7185878,4.0337352 L -2.2072895,0.016013256 L 8.7185884,-4.0017078 C 6.9730900,-1.6296469 6.9831476,1.6157441 8.7185878,4.0337352 z" transform="scale(1.1) translate(1,0)"/></marker><marker id="Arrow1Lstart" orient="auto" refX="0" refY="0" style="overflow:visible"><path id="path4376" d="M 0.0,0.0 L 5.0,-5.0 L -12.5,0.0 L 5.0,5.0 L 0.0,0.0 z" style="fill-rule:evenodd;stroke:#000;stroke-width:1pt;marker-start:none" transform="scale(0.8) translate(12.5,0)"/></marker><linearGradient id="linearGradient5762" x1="12" x2="7.5" y1="11.5" y2="6" gradientTransform="matrix(-1.030301,0,0,1.030301,16.242408,-0.242408)" gradientUnits="userSpaceOnUse" xlink:href="#linearGradient5756"/><linearGradient id="linearGradient3798" x1="4" x2="9" y1="14" y2="8.5" gradientUnits="userSpaceOnUse" xlink:href="#linearGradient5756"/></defs><metadata id="metadata3856"/><g id="layer2" style="display:inline"><path style="fill:#000;fill-opacity:1;stroke:#000;stroke-width:1px;stroke-linecap:butt;stroke-linejoin:miter;stroke-opacity:1;display:inline" id="path3903-5-9-0" d="m 20.75,4.8284273 -2.828427,-3e-7 L 20.75,2 23.578426,4.8284274 z"/><path style="fill:none;stroke:#000;stroke-width:1.5;stroke-linecap:butt;stroke-linejoin:miter;stroke-miterlimit:4;stroke-opacity:1;stroke-dasharray:none;display:inline" id="path4007-8" d="m 20.75,4.75 0,9.5"/><path style="fill:#000;fill-opacity:1;stroke:#000;stroke-width:1px;stroke-linecap:butt;stroke-linejoin:miter;stroke-opacity:1;display:inline" id="path3903-5-9-9-4" d="m 20.75,13.75 2.828427,0 L 20.75,16.578427 17.921574,13.75 z"/><path id="path4190" d="M 8,1.15625 5.15625,4 7.25,4 l 0,8.25 -2.09375,0 L 8,15.09375 10.84375,12.25 8.75,12.25 8.75,4 10.84375,4 z" style="fill:#000;fill-opacity:1;stroke:#000;stroke-width:1px;stroke-linecap:butt;stroke-linejoin:miter;stroke-opacity:1"/></g><g id="layer1"><path style="fill:none;stroke:#000;stroke-width:1.5;stroke-linecap:butt;stroke-linejoin:round;stroke-miterlimit:4;stroke-opacity:1;stroke-dasharray:none" id="path3881-0-6" d="M -5.0104072,14.010408 C -6.6701356,12.350679 -7.4999999,10.17534 -7.5,8 c -2e-7,-2.1753398 0.8298639,-4.3506794 2.4895923,-6.0104084"/><path style="fill:none;stroke:#000;stroke-width:1px;stroke-linecap:butt;stroke-linejoin:miter;stroke-opacity:1" id="path3903-5" d="m -5,2 -2,-2 4,0 0,4 z"/><path style="fill:none;stroke:#000;stroke-width:1px;stroke-linecap:butt;stroke-linejoin:miter;stroke-opacity:1" id="path3903-2-6" d="M -5,14 -3,12.000001 -3,16 -6.9999999,16 z"/><path style="font-size:medium;font-style:normal;font-variant:normal;font-weight:400;font-stretch:normal;text-indent:0;text-align:start;text-decoration:none;line-height:normal;letter-spacing:normal;word-spacing:normal;text-transform:none;direction:ltr;block-progression:tb;writing-mode:lr-tb;text-anchor:start;baseline-shift:baseline;color:#000;fill:#000;fill-opacity:1;stroke:#000;stroke-width:1;stroke-linejoin:miter;stroke-miterlimit:4;stroke-opacity:1;stroke-dasharray:none;marker:none;visibility:visible;display:inline;overflow:visible;enable-background:accumulate;font-family:Sans;-inkscape-font-specification:Sans" id="path4192" d="M 0.4999999,8.2470238 1.8758604,6.8711635 C 3.5648638,8.560166 5.7776049,9.417969 7.9940475,9.417969 c 2.2164445,0 4.4291855,-0.857802 6.1181875,-2.5468053 l 1.375861,1.3758601 0,-3.7470239 -3.747023,-2e-7 1.37586,1.3758603 C 11.696416,7.2963786 9.85313,8.0128346 7.9940475,8.0128349 6.1349653,8.012835 4.2916819,7.2963782 2.8711634,5.8758602 L 4.2470237,4.5 0.5,4.5 l -1e-7,3.7470238 z"/><path id="path4196" d="M 0.4999999,8.2470238 1.8758604,6.8711635 C 3.5648638,8.560166 5.7776049,9.417969 7.9940475,9.417969 c 2.2164445,0 4.4291855,-0.857802 6.1181875,-2.5468053 l 1.375861,1.3758601 0,-3.7470239 -3.747023,-2e-7 1.37586,1.3758603 C 11.696416,7.2963786 9.85313,8.0128346 7.9940475,8.0128349 6.1349653,8.012835 4.2916819,7.2963782 2.8711634,5.8758602 L 4.2470237,4.5 0.5,4.5 l -1e-7,3.7470238 z" style="font-size:medium;font-style:normal;font-variant:normal;font-weight:400;font-stretch:normal;text-indent:0;text-align:start;text-decoration:none;line-height:normal;letter-spacing:normal;word-spacing:normal;text-transform:none;direction:ltr;block-progression:tb;writing-mode:lr-tb;text-anchor:start;baseline-shift:baseline;color:#000;fill:#fff;fill-opacity:1;stroke:none;stroke-width:1;marker:none;visibility:visible;display:inline;overflow:visible;enable-background:accumulate;font-family:Sans;-inkscape-font-specification:Sans"/><path id="path4194" d="M 8,1.15625 5.15625,4 7.25,4 l 0,8.25 -2.09375,0 L 8,15.09375 10.84375,12.25 8.75,12.25 8.75,4 10.84375,4 z" style="fill:#fff;fill-opacity:1;stroke:none;display:inline"/></g></svg>