<svg xmlns="http://www.w3.org/2000/svg" xmlns:svg="http://www.w3.org/2000/svg" xmlns:xlink="http://www.w3.org/1999/xlink" id="svg3851" width="17" height="17" version="1.1"><defs id="defs3853"><linearGradient id="linearGradient3841"><stop id="stop3843" offset="0" style="stop-color:#fff;stop-opacity:1"/><stop style="stop-color:#fff;stop-opacity:1" id="stop3845" offset=".35"/><stop id="stop3849" offset=".545" style="stop-color:#e8e8e8;stop-opacity:1"/><stop id="stop3847" offset="1" style="stop-color:#252525;stop-opacity:1"/></linearGradient><linearGradient id="linearGradient3824"><stop style="stop-color:#fff;stop-opacity:1" id="stop3826" offset="0"/><stop id="stop3832" offset=".5" style="stop-color:#fff;stop-opacity:1"/><stop style="stop-color:#d2d2d2;stop-opacity:1" id="stop3828" offset="1"/></linearGradient><linearGradient id="linearGradient3827"><stop style="stop-color:#8ca6f1;stop-opacity:1" id="stop3829" offset="0"/><stop id="stop3836" offset=".74" style="stop-color:#5a72b4;stop-opacity:1"/><stop style="stop-color:#293e78;stop-opacity:1" id="stop3831" offset="1"/></linearGradient><linearGradient id="linearGradient5756"><stop style="stop-color:#c8c8c8;stop-opacity:1" id="stop5758" offset="0"/><stop style="stop-color:#fff;stop-opacity:1" id="stop5760" offset="1"/></linearGradient><marker id="Arrow2Lend" orient="auto" refX="0" refY="0" style="overflow:visible"><path id="path4397" style="font-size:12px;fill-rule:evenodd;stroke-width:.625;stroke-linejoin:round" d="M 8.7185878,4.0337352 -2.2072895,0.01601326 8.7185884,-4.0017078 c -1.7454984,2.3720609 -1.7354408,5.6174519 -6e-7,8.035443 z" transform="matrix(-1.1,0,0,-1.1,-1.1,0)"/></marker><marker id="Arrow2Lstart" orient="auto" refX="0" refY="0" style="overflow:visible"><path id="path4394" style="font-size:12px;fill-rule:evenodd;stroke-width:.625;stroke-linejoin:round" d="M 8.7185878,4.0337352 -2.2072895,0.01601326 8.7185884,-4.0017078 c -1.7454984,2.3720609 -1.7354408,5.6174519 -6e-7,8.035443 z" transform="matrix(1.1,0,0,1.1,1.1,0)"/></marker><marker id="Arrow1Lstart" orient="auto" refX="0" refY="0" style="overflow:visible"><path id="path4376" d="M 0,0 5,-5 -12.5,0 5,5 0,0 z" style="fill-rule:evenodd;stroke:#000;stroke-width:1pt;marker-start:none" transform="matrix(0.8,0,0,0.8,10,0)"/></marker><linearGradient id="linearGradient5762" x1="12" x2="7.5" y1="11.5" y2="6" gradientTransform="matrix(-1.030301,0,0,1.030301,16.242408,-0.242408)" gradientUnits="userSpaceOnUse" xlink:href="#linearGradient5756"/><linearGradient id="linearGradient3798" x1="4" x2="9" y1="14" y2="8.5" gradientUnits="userSpaceOnUse" xlink:href="#linearGradient5756"/><radialGradient id="radialGradient3833" cx="7.875" cy="6.875" r="3.13" fx="7.875" fy="6.875" gradientUnits="userSpaceOnUse" xlink:href="#linearGradient3827"/><radialGradient id="radialGradient3830" cx="7.234" cy="7.284" r="7.875" fx="7.234" fy="7.284" gradientTransform="matrix(1.3655998,8.9804355e-8,-5.0557595e-8,0.69841272,-2.1415873,2.4126975)" gradientUnits="userSpaceOnUse" xlink:href="#linearGradient3841"/></defs><metadata id="metadata3856"/><g id="layer1" transform="translate(0,1)"><path style="font-size:medium;font-style:normal;font-variant:normal;font-weight:400;font-stretch:normal;text-indent:0;text-align:start;text-decoration:none;line-height:normal;letter-spacing:normal;word-spacing:normal;text-transform:none;direction:ltr;block-progression:tb;writing-mode:lr-tb;text-anchor:start;baseline-shift:baseline;color:#000;fill:#fff;fill-opacity:1;stroke:#000;stroke-width:.5;marker:none;visibility:visible;display:inline;overflow:visible;enable-background:accumulate;font-family:Sans;-inkscape-font-specification:Sans;stroke-opacity:1;stroke-miterlimit:4;stroke-dasharray:none;stroke-linejoin:round" id="path3827" d="M 7.75 0.25 L 7.75 3.1875 C 5.3857922 3.5179998 3.5153714 5.3825505 3.1875 7.75 L 0.25 7.75 L 0.25 9.25 L 3.1875 9.25 C 3.5153714 11.617449 5.3857922 13.482 7.75 13.8125 L 7.75 16.75 L 9.25 16.75 L 9.25 13.8125 C 11.614207 13.482 13.484629 11.617449 13.8125 9.25 L 16.75 9.25 L 16.75 7.75 L 13.8125 7.75 C 13.484629 5.3825505 11.614207 3.5179998 9.25 3.1875 L 9.25 0.25 L 7.75 0.25 z M 7.75 4.96875 L 7.75 7.75 L 4.9375 7.75 C 5.2343966 6.3461629 6.3393288 5.2597689 7.75 4.96875 z M 9.25 4.96875 C 10.660671 5.2597689 11.765603 6.3461629 12.0625 7.75 L 9.25 7.75 L 9.25 4.96875 z M 4.9375 9.25 L 7.75 9.25 L 7.75 12.03125 C 6.3393288 11.740231 5.2343966 10.653837 4.9375 9.25 z M 9.25 9.25 L 12.0625 9.25 C 11.765603 10.653837 10.660671 11.740231 9.25 12.03125 L 9.25 9.25 z" transform="translate(0,-1)"/><path style="fill:none;stroke:#000;stroke-width:1.50000011999999994;stroke-linecap:butt;stroke-linejoin:round;stroke-miterlimit:4;stroke-opacity:1;stroke-dasharray:none" id="path3827-3" d="m -11.5,-0.75 0,16.499999"/><path style="fill:none;stroke:#000;stroke-width:1.5;stroke-linecap:butt;stroke-linejoin:round;stroke-miterlimit:4;stroke-opacity:1;stroke-dasharray:none" id="path3847-4" d="m -19.75,7.5 16.5,0"/><path transform="translate(-20,-1)" style="fill:none;stroke:#000;stroke-width:1.75;stroke-linecap:square;stroke-linejoin:round;stroke-miterlimit:4;stroke-opacity:1;stroke-dasharray:none" id="path3851-9" d="m 13,8.5 a 4.5,4.5 0 1 1 -9,0 4.5,4.5 0 1 1 9,0 z"/></g></svg>