<svg xmlns="http://www.w3.org/2000/svg" xmlns:svg="http://www.w3.org/2000/svg" xmlns:xlink="http://www.w3.org/1999/xlink" id="svg3851" width="16" height="16" version="1.1"><defs id="defs3853"><linearGradient id="linearGradient3841"><stop id="stop3843" offset="0" style="stop-color:#fff;stop-opacity:1"/><stop style="stop-color:#fff;stop-opacity:1" id="stop3845" offset=".35"/><stop id="stop3849" offset=".545" style="stop-color:#e8e8e8;stop-opacity:1"/><stop id="stop3847" offset="1" style="stop-color:#252525;stop-opacity:1"/></linearGradient><linearGradient id="linearGradient3824"><stop style="stop-color:#fff;stop-opacity:1" id="stop3826" offset="0"/><stop id="stop3832" offset=".5" style="stop-color:#fff;stop-opacity:1"/><stop style="stop-color:#d2d2d2;stop-opacity:1" id="stop3828" offset="1"/></linearGradient><linearGradient id="linearGradient3827"><stop style="stop-color:#e85537;stop-opacity:1" id="stop3829" offset="0"/><stop style="stop-color:#433613;stop-opacity:1" id="stop3831" offset="1"/></linearGradient><linearGradient id="linearGradient5756"><stop style="stop-color:#c8c8c8;stop-opacity:1" id="stop5758" offset="0"/><stop style="stop-color:#fff;stop-opacity:1" id="stop5760" offset="1"/></linearGradient><marker id="Arrow2Lend" orient="auto" refX="0" refY="0" style="overflow:visible"><path id="path4397" style="font-size:12;fill-rule:evenodd;stroke-width:.625;stroke-linejoin:round" d="M 8.7185878,4.0337352 L -2.2072895,0.016013256 L 8.7185884,-4.0017078 C 6.9730900,-1.6296469 6.9831476,1.6157441 8.7185878,4.0337352 z" transform="scale(1.1) rotate(180) translate(1,0)"/></marker><marker id="Arrow2Lstart" orient="auto" refX="0" refY="0" style="overflow:visible"><path id="path4394" style="font-size:12;fill-rule:evenodd;stroke-width:.625;stroke-linejoin:round" d="M 8.7185878,4.0337352 L -2.2072895,0.016013256 L 8.7185884,-4.0017078 C 6.9730900,-1.6296469 6.9831476,1.6157441 8.7185878,4.0337352 z" transform="scale(1.1) translate(1,0)"/></marker><marker id="Arrow1Lstart" orient="auto" refX="0" refY="0" style="overflow:visible"><path id="path4376" d="M 0.0,0.0 L 5.0,-5.0 L -12.5,0.0 L 5.0,5.0 L 0.0,0.0 z" style="fill-rule:evenodd;stroke:#000;stroke-width:1pt;marker-start:none" transform="scale(0.8) translate(12.5,0)"/></marker><linearGradient id="linearGradient5762" x1="12" x2="7.5" y1="11.5" y2="6" gradientTransform="matrix(-1.030301,0,0,1.030301,16.242408,-0.242408)" gradientUnits="userSpaceOnUse" xlink:href="#linearGradient5756"/><linearGradient id="linearGradient3798" x1="4" x2="9" y1="14" y2="8.5" gradientUnits="userSpaceOnUse" xlink:href="#linearGradient5756"/><linearGradient id="linearGradient3835" x1="8" x2="8" y1="2.75" y2="15" gradientTransform="matrix(1.1111111,0,0,1.0666665,-0.88888889,-0.53333227)" gradientUnits="userSpaceOnUse" xlink:href="#linearGradient3827"/></defs><metadata id="metadata3856"/><g id="layer1"><path style="fill:url(#linearGradient3835);fill-opacity:1;stroke:none" id="path3033" d="M 8,1.02e-6 C 5.2385762,1.02e-6 3,3.0430126 3,5.5172419 3,8.5172419 8,16 8,16 8,16 13,8.6103925 13,5.5862074 13,5.5621684 13,5.5412814 13,5.5172424 13,2.4701539 10.761423,1.02e-6 8,1.02e-6 z M 7.9652778,3.0068973 c 0.9204746,0 1.6666667,0.7410458 1.6666667,1.6551722 0,0.9141264 -0.7461921,1.6551723 -1.6666667,1.6551723 -0.9204746,0 -1.6666667,-0.7410459 -1.6666667,-1.6551723 0,-0.9141264 0.7461921,-1.6551722 1.6666667,-1.6551722 z"/></g></svg>